<svg width="512" height="512" viewBox="0 0 512 512" fill="none" xmlns="http://www.w3.org/2000/svg">
  <rect width="512" height="512" rx="128" fill="#0284c7"/>
  <path d="M256 128C256 110.327 270.327 96 288 96H384C401.673 96 416 110.327 416 128V224C416 241.673 401.673 256 384 256H288C270.327 256 256 241.673 256 224V128Z" fill="white"/>
  <path d="M96 160C96 142.327 110.327 128 128 128H224C241.673 128 256 142.327 256 160V384C256 401.673 241.673 416 224 416H128C110.327 416 96 401.673 96 384V160Z" fill="white"/>
  <path d="M288 288C288 270.327 302.327 256 320 256H384C401.673 256 416 270.327 416 288V384C416 401.673 401.673 416 384 416H320C302.327 416 288 401.673 288 384V288Z" fill="white"/>
</svg>
